<?xml version="1.0" standalone="no"?>
<!DOCTYPE svg PUBLIC "-//W3C//DTD SVG 20010904//EN"
 "http://www.w3.org/TR/2001/REC-SVG-20010904/DTD/svg10.dtd">
<svg version="1.0" xmlns="http://www.w3.org/2000/svg"
 width="170.000000pt" height="170.000000pt" viewBox="0 0 170.000000 170.000000"
 preserveAspectRatio="xMidYMid meet">

<g transform="translate(0.000000,170.000000) scale(0.100000,-0.100000)"
fill="#F8FAFC" stroke="none">
<path d="M883 1640 c-35 -16 -63 -33 -63 -38 0 -5 14 -12 30 -16 17 -3 42 -17
56 -31 14 -14 26 -25 28 -25 5 0 19 131 14 135 -1 2 -31 -10 -65 -25z"/>
<path d="M670 1590 c0 -6 11 -32 24 -59 l25 -47 58 4 c69 5 143 -12 143 -34 0
-12 -4 -12 -32 2 l-33 17 23 -25 c25 -27 20 -38 -29 -57 l-24 -10 25 0 c14 -1
48 -12 75 -25 130 -61 200 -213 161 -347 -21 -75 -62 -127 -140 -183 -66 -45
-68 -46 -146 -46 -78 0 -80 1 -146 46 -78 56 -119 108 -140 183 -29 96 1 208
74 284 46 48 80 66 162 88 36 10 57 18 48 18 -9 1 -32 19 -50 42 l-34 40 -56
-21 c-188 -70 -294 -274 -244 -469 26 -102 72 -167 174 -242 28 -22 52 -46 52
-54 0 -13 26 -15 160 -15 134 0 160 2 160 15 0 8 24 32 53 54 125 94 187 206
187 341 -1 146 -96 297 -225 356 -47 22 -55 29 -55 53 0 39 -39 71 -107 87
-69 16 -143 18 -143 4z"/>
<path d="M775 1123 c-77 -106 -83 -115 -63 -109 7 2 26 7 42 11 l28 6 -6 -48
c-4 -26 -9 -61 -13 -78 -5 -29 -4 -28 29 15 19 25 51 69 73 99 l39 54 -38 -6
-38 -6 7 62 c3 34 9 70 11 80 3 9 4 17 2 17 -2 0 -34 -44 -73 -97z"/>
<path d="M657 644 c-4 -4 -7 -16 -7 -26 0 -17 10 -18 153 -16 144 3 152 4 152
23 0 19 -8 20 -146 23 -80 1 -148 -1 -152 -4z"/>
<path d="M650 562 c0 -16 45 -50 84 -62 74 -24 191 4 216 50 10 20 7 20 -145
20 -85 0 -155 -4 -155 -8z"/>
<path d="M400 215 l0 -125 63 0 c36 0 68 5 75 12 8 8 12 48 12 115 0 119 -3
123 -94 123 l-56 0 0 -125z m90 0 c0 -41 -4 -77 -10 -80 -6 -4 -10 25 -10 80
0 55 4 84 10 80 6 -3 10 -39 10 -80z"/>
<path d="M610 215 l0 -125 60 0 c57 0 60 1 60 25 0 20 -5 25 -25 25 -21 0 -25
5 -25 30 0 23 4 30 20 30 13 0 20 7 20 20 0 13 -7 20 -20 20 -15 0 -20 7 -20
25 0 18 5 25 20 25 15 0 20 7 20 25 0 24 -3 25 -55 25 l-55 0 0 -125z"/>
<path d="M780 215 l0 -125 55 0 c52 0 55 1 55 25 0 18 -5 25 -20 25 -19 0 -20
7 -20 100 l0 100 -35 0 -35 0 0 -125z"/>
<path d="M900 315 c0 -18 5 -25 20 -25 19 0 20 -7 20 -100 l0 -100 35 0 35 0
0 100 c0 93 1 100 20 100 15 0 20 7 20 25 0 24 -2 25 -75 25 -73 0 -75 -1 -75
-25z"/>
<path d="M1091 243 c-6 -54 -14 -110 -17 -126 -5 -25 -3 -27 30 -27 28 0 35 4
38 23 4 27 22 26 26 -3 3 -16 11 -20 38 -20 33 0 35 2 30 27 -3 16 -10 60 -16
98 -20 133 -15 125 -69 125 l-48 0 -12 -97z m66 -62 c-13 -5 -14 2 -8 44 l5
40 6 -40 c3 -22 1 -42 -3 -44z"/>
</g>
</svg>
